<?xml version="1.0" encoding="UTF-8"?>
<svg xmlns="http://www.w3.org/2000/svg" width="1200" height="690" viewBox="0 0 1200 690">
<rect width="100%" height="100%" fill="#ffffff"/>
<style>
text { font-family: "DejaVu Sans", Arial, sans-serif; fill: #202124; }
.title { font-size: 24px; font-weight: 700; }
.subtitle { font-size: 14px; fill: #4d5156; }
.axis-label { font-size: 15px; font-weight: 600; }
.tick { font-size: 12px; fill: #5f6368; }
.note { font-size: 13px; fill: #3c4043; }
.small { font-size: 11px; fill: #5f6368; }
.panel-title { font-size: 16px; font-weight: 700; }
.label { font-size: 13px; font-weight: 600; }
</style>
<text class="title" x="40" y="42">HIGGS accuracy vs. wall throughput on XDNA2</text>
<text class="subtitle" x="40" y="66">Measured points use the CPU-head throughput rows from Table 4 and the retained accuracy rows from Table 3.</text>
<text class="subtitle" x="40" y="86">All three retained operating points now have measured hardware throughput.</text>
<line x1="92.00" y1="132" x2="92.00" y2="556" stroke="#eceff1" stroke-width="1"/>
<text class="tick" x="92.00" y="580" text-anchor="middle">1.2</text>
<line x1="136.38" y1="132" x2="136.38" y2="556" stroke="#eceff1" stroke-width="1"/>
<text class="tick" x="136.38" y="580" text-anchor="middle">1.4</text>
<line x1="180.75" y1="132" x2="180.75" y2="556" stroke="#eceff1" stroke-width="1"/>
<text class="tick" x="180.75" y="580" text-anchor="middle">1.6</text>
<line x1="225.13" y1="132" x2="225.13" y2="556" stroke="#eceff1" stroke-width="1"/>
<text class="tick" x="225.13" y="580" text-anchor="middle">1.8</text>
<line x1="269.50" y1="132" x2="269.50" y2="556" stroke="#eceff1" stroke-width="1"/>
<text class="tick" x="269.50" y="580" text-anchor="middle">2.0</text>
<line x1="313.88" y1="132" x2="313.88" y2="556" stroke="#eceff1" stroke-width="1"/>
<text class="tick" x="313.88" y="580" text-anchor="middle">2.2</text>
<line x1="358.25" y1="132" x2="358.25" y2="556" stroke="#eceff1" stroke-width="1"/>
<text class="tick" x="358.25" y="580" text-anchor="middle">2.4</text>
<line x1="402.62" y1="132" x2="402.62" y2="556" stroke="#eceff1" stroke-width="1"/>
<text class="tick" x="402.62" y="580" text-anchor="middle">2.6</text>
<line x1="447.00" y1="132" x2="447.00" y2="556" stroke="#eceff1" stroke-width="1"/>
<text class="tick" x="447.00" y="580" text-anchor="middle">2.8</text>
<line x1="491.38" y1="132" x2="491.38" y2="556" stroke="#eceff1" stroke-width="1"/>
<text class="tick" x="491.38" y="580" text-anchor="middle">3.0</text>
<line x1="535.75" y1="132" x2="535.75" y2="556" stroke="#eceff1" stroke-width="1"/>
<text class="tick" x="535.75" y="580" text-anchor="middle">3.2</text>
<line x1="580.12" y1="132" x2="580.12" y2="556" stroke="#eceff1" stroke-width="1"/>
<text class="tick" x="580.12" y="580" text-anchor="middle">3.4</text>
<line x1="624.50" y1="132" x2="624.50" y2="556" stroke="#eceff1" stroke-width="1"/>
<text class="tick" x="624.50" y="580" text-anchor="middle">3.6</text>
<line x1="668.87" y1="132" x2="668.87" y2="556" stroke="#eceff1" stroke-width="1"/>
<text class="tick" x="668.87" y="580" text-anchor="middle">3.8</text>
<line x1="713.25" y1="132" x2="713.25" y2="556" stroke="#eceff1" stroke-width="1"/>
<text class="tick" x="713.25" y="580" text-anchor="middle">4.0</text>
<line x1="757.62" y1="132" x2="757.62" y2="556" stroke="#eceff1" stroke-width="1"/>
<text class="tick" x="757.62" y="580" text-anchor="middle">4.2</text>
<line x1="802.00" y1="132" x2="802.00" y2="556" stroke="#eceff1" stroke-width="1"/>
<text class="tick" x="802.00" y="580" text-anchor="middle">4.4</text>
<line x1="92" y1="556.00" x2="802" y2="556.00" stroke="#eceff1" stroke-width="1"/>
<text class="tick" x="80" y="560.00" text-anchor="end">75.5%</text>
<line x1="92" y1="485.33" x2="802" y2="485.33" stroke="#eceff1" stroke-width="1"/>
<text class="tick" x="80" y="489.33" text-anchor="end">76.0%</text>
<line x1="92" y1="414.67" x2="802" y2="414.67" stroke="#eceff1" stroke-width="1"/>
<text class="tick" x="80" y="418.67" text-anchor="end">76.5%</text>
<line x1="92" y1="344.00" x2="802" y2="344.00" stroke="#eceff1" stroke-width="1"/>
<text class="tick" x="80" y="348.00" text-anchor="end">77.0%</text>
<line x1="92" y1="273.33" x2="802" y2="273.33" stroke="#eceff1" stroke-width="1"/>
<text class="tick" x="80" y="277.33" text-anchor="end">77.5%</text>
<line x1="92" y1="202.67" x2="802" y2="202.67" stroke="#eceff1" stroke-width="1"/>
<text class="tick" x="80" y="206.67" text-anchor="end">78.0%</text>
<line x1="92" y1="132.00" x2="802" y2="132.00" stroke="#eceff1" stroke-width="1"/>
<text class="tick" x="80" y="136.00" text-anchor="end">78.5%</text>
<line x1="92" y1="132" x2="92" y2="556" stroke="#5f6368" stroke-width="1.5"/>
<line x1="92" y1="556" x2="802" y2="556" stroke="#5f6368" stroke-width="1.5"/>
<polyline fill="none" stroke="#5f6368" stroke-width="2.5" points="125.28,205.49 600.09,346.83 753.19,500.88" opacity="0.7"/>
<circle cx="125.28" cy="205.49" r="7.5" fill="#d95f02" stroke="#ffffff" stroke-width="2"/>
<rect x="135.28" y="151.49" width="206" height="60" rx="8" fill="#ffffff" fill-opacity="0.9"/>
<text class="label" x="145.28" y="171.49">H=64, L=32</text>
<text class="note" x="145.28" y="189.49">1.35M/s, 77.98% acc</text>
<text class="small" x="145.28" y="205.49">Best accuracy · ROC AUC 0.8653</text>
<circle cx="600.09" cy="346.83" r="7.5" fill="#2ca02c" stroke="#ffffff" stroke-width="2"/>
<rect x="610.09" y="292.83" width="206" height="60" rx="8" fill="#ffffff" fill-opacity="0.9"/>
<text class="label" x="620.09" y="312.83">H=32, L=32</text>
<text class="note" x="620.09" y="330.83">3.49M/s, 76.98% acc</text>
<text class="small" x="620.09" y="346.83">Best full-data manual · ROC AUC 0.8542</text>
<circle cx="753.19" cy="500.88" r="7.5" fill="#1f77b4" stroke="#ffffff" stroke-width="2"/>
<rect x="593.19" y="498.88" width="184" height="60" rx="8" fill="#ffffff" fill-opacity="0.9"/>
<text class="label" x="603.19" y="518.88">H=32, L=8</text>
<text class="note" x="603.19" y="536.88">4.18M/s, 75.89% acc</text>
<text class="small" x="603.19" y="552.88">Best throughput · ROC AUC 0.8430</text>
<text class="axis-label" x="447.00" y="644" text-anchor="middle">
Wall throughput (million samples / s)
</text>
<text class="axis-label" x="28" y="344.00" transform="rotate(-90 28 344.00)" text-anchor="middle">Test accuracy</text>
<rect x="842" y="132" width="324" height="286" rx="14" fill="#f8f9fa" stroke="#dadce0"/>
<text class="panel-title" x="860" y="162">Retained operating points</text>
<circle cx="860" cy="191" r="5.5" fill="#1f77b4" stroke="#ffffff" stroke-width="1.5"/>
<text class="note" x="876" y="196">H=32, L=8 (throughput point)</text>
<text class="small" x="876" y="218">75.89% acc · 4.18M/s wall</text>
<text class="small" x="876" y="234">ROC AUC 0.8430</text>
<circle cx="860" cy="259" r="5.5" fill="#2ca02c" stroke="#ffffff" stroke-width="1.5"/>
<text class="note" x="876" y="264">H=32, L=32 (best full-data manual)</text>
<text class="small" x="876" y="286">76.98% acc · 3.49M/s wall</text>
<text class="small" x="876" y="302">ROC AUC 0.8542</text>
<circle cx="860" cy="327" r="5.5" fill="#d95f02" stroke="#ffffff" stroke-width="1.5"/>
<text class="note" x="876" y="332">H=64, L=32 tuned (best accuracy)</text>
<text class="small" x="876" y="354">77.98% acc · 1.35M/s wall</text>
<text class="small" x="876" y="370">ROC AUC 0.8653</text>
</svg>
